<svg width="28" height="28" viewBox="0 0 28 28" fill="none" xmlns="http://www.w3.org/2000/svg">
<path d="M14 6.99998C14.923 6.99998 15.8252 7.27367 16.5927 7.78645C17.3601 8.29923 17.9582 9.02807 18.3115 9.88079C18.6647 10.7335 18.7571 11.6718 18.577 12.5771C18.3969 13.4823 17.9525 14.3138 17.2998 14.9665C16.6472 15.6191 15.8157 16.0636 14.9104 16.2436C14.0052 16.4237 13.0669 16.3313 12.2142 15.9781C11.3614 15.6249 10.6326 15.0267 10.1198 14.2593C9.60704 13.4919 9.33335 12.5896 9.33335 11.6666C9.33335 10.429 9.82501 9.24198 10.7002 8.36681C11.5754 7.49164 12.7623 6.99998 14 6.99998ZM14 14C14.4615 14 14.9126 13.8631 15.2963 13.6067C15.6801 13.3504 15.9791 12.9859 16.1557 12.5596C16.3323 12.1332 16.3785 11.6641 16.2885 11.2114C16.1985 10.7588 15.9763 10.3431 15.6499 10.0167C15.3236 9.69041 14.9078 9.46818 14.4552 9.37815C14.0026 9.28811 13.5334 9.33432 13.1071 9.51093C12.6807 9.68753 12.3163 9.9866 12.0599 10.3703C11.8035 10.754 11.6667 11.2052 11.6667 11.6666C11.6667 12.2855 11.9125 12.879 12.3501 13.3166C12.7877 13.7541 13.3812 14 14 14ZM14 2.33331C16.3075 2.33331 18.5631 3.01755 20.4817 4.2995C22.4002 5.58145 23.8956 7.40353 24.7786 9.53534C25.6616 11.6671 25.8927 14.0129 25.4425 16.276C24.9923 18.5391 23.8812 20.6179 22.2496 22.2496C20.618 23.8812 18.5392 24.9923 16.2761 25.4425C14.013 25.8926 11.6672 25.6616 9.53537 24.7786C7.40357 23.8956 5.58149 22.4002 4.29954 20.4816C3.01759 18.5631 2.33335 16.3074 2.33335 14C2.33335 12.4679 2.63512 10.9508 3.22142 9.53534C3.80773 8.11987 4.66709 6.83375 5.75044 5.7504C6.83379 4.66705 8.11991 3.80769 9.53537 3.22139C10.9508 2.63508 12.4679 2.33331 14 2.33331ZM18.6667 22.0733V21C18.6667 20.6906 18.5438 20.3938 18.325 20.175C18.1062 19.9562 17.8094 19.8333 17.5 19.8333H10.5C10.1906 19.8333 9.89385 19.9562 9.67506 20.175C9.45627 20.3938 9.33335 20.6906 9.33335 21V22.0733C10.7502 22.8982 12.3605 23.3328 14 23.3328C15.6396 23.3328 17.2498 22.8982 18.6667 22.0733ZM7.08168 20.2416C7.25431 19.4638 7.68716 18.7682 8.3087 18.2697C8.93024 17.7712 9.70326 17.4996 10.5 17.5H17.5C18.2968 17.4996 19.0698 17.7712 19.6913 18.2697C20.3129 18.7682 20.7457 19.4638 20.9183 20.2416C22.131 18.9025 22.9289 17.2402 23.2153 15.4564C23.5017 13.6727 23.2643 11.8441 22.5318 10.1927C21.7993 8.54124 20.6033 7.13786 19.0888 6.15284C17.5744 5.16783 15.8066 4.64351 14 4.64351C12.1934 4.64351 10.4256 5.16783 8.91119 6.15284C7.39674 7.13786 6.20071 8.54124 5.46823 10.1927C4.73576 11.8441 4.49831 13.6727 4.78471 15.4564C5.07111 17.2402 5.86904 18.9025 7.08168 20.2416Z" fill="#2F327D"/>
</svg>
