<svg width="22" height="24" viewBox="0 0 22 24" fill="none" xmlns="http://www.w3.org/2000/svg">
<path d="M5.375 9.80978C5.90535 9.77778 6.55916 9.77778 7.4 9.77778H14.6C15.4408 9.77778 16.0947 9.77778 16.625 9.80978M5.375 9.80978C4.71314 9.84967 4.24358 9.93944 3.84278 10.1411C3.20773 10.4607 2.69143 10.9706 2.36785 11.5978C2 12.3109 2 13.2442 2 15.1111V16.6667C2 18.5336 2 19.4669 2.36785 20.18C2.69143 20.8072 3.20773 21.3171 3.84278 21.6367C4.56473 22 5.50982 22 7.4 22H14.6C16.4902 22 17.4352 22 18.1572 21.6367C18.7923 21.3171 19.3086 20.8072 19.6321 20.18C20 19.4669 20 18.5336 20 16.6667V15.1111C20 13.2442 20 12.3109 19.6321 11.5978C19.3086 10.9706 18.7923 10.4607 18.1572 10.1411C17.7564 9.93944 17.2868 9.84967 16.625 9.80978M5.375 9.80978V7.55556C5.375 4.48731 7.8934 2 11 2C14.1066 2 16.625 4.48731 16.625 7.55556V9.80978" stroke="#2F327D" stroke-width="2.3" stroke-linecap="round" stroke-linejoin="round"/>
</svg>
