<svg width="25" height="20" viewBox="0 0 25 20" fill="none" xmlns="http://www.w3.org/2000/svg">
<path d="M2.72222 17.2857L8.83333 10M22.2778 17.2857L16.1667 10M1.5 5.14286L10.3306 10.9916C11.1146 11.5109 11.5066 11.7707 11.9303 11.8715C12.3048 11.9607 12.6952 11.9607 13.0697 11.8715C13.4934 11.7707 13.8854 11.5109 14.6694 10.9916L23.5 5.14286M5.41111 18.5H19.5889C20.9579 18.5 21.6425 18.5 22.1653 18.2353C22.6253 18.0025 22.9993 17.6309 23.2336 17.174C23.5 16.6545 23.5 15.9744 23.5 14.6143V5.38571C23.5 4.02559 23.5 3.34552 23.2336 2.82602C22.9993 2.36905 22.6253 1.99753 22.1653 1.7647C21.6425 1.5 20.9579 1.5 19.5889 1.5H5.41111C4.0421 1.5 3.35758 1.5 2.83469 1.7647C2.37473 1.99753 2.00078 2.36905 1.76643 2.82602C1.5 3.34552 1.5 4.02558 1.5 5.38571V14.6143C1.5 15.9744 1.5 16.6545 1.76643 17.174C2.00078 17.6309 2.37473 18.0025 2.83469 18.2353C3.35758 18.5 4.04209 18.5 5.41111 18.5Z" stroke="#2F327D" stroke-width="2.3" stroke-linecap="round" stroke-linejoin="round"/>
</svg>
